<svg width="386" height="370" viewBox="0 0 386 370" fill="none" xmlns="http://www.w3.org/2000/svg">
<path d="M154.133 281.504H125.44C127.553 279.059 138.052 274.36 163.141 275.126C170.48 271.937 172.149 274.169 175.485 257.905C178.821 241.64 182.157 226.651 168.145 220.273C154.133 213.895 139.119 209.43 139.786 200.182C145.658 204.519 151.797 207.729 154.133 208.792C154.355 206.135 153.732 200.182 149.462 197.63C156.935 202.733 159.471 209.111 159.804 211.662L175.485 218.36C174.484 210.493 169.947 193.803 159.804 189.977C149.662 186.15 149.795 179.027 151.13 175.944L159.804 183.598V169.566L163.141 185.831L168.145 188.063V177.858C170.592 180.515 171.045 186.792 173.149 189.977C177.153 196.036 181.824 196.036 182.825 216.446C185.271 205.178 189.631 180.537 187.496 172.117C185.36 163.698 185.049 159.68 185.16 158.723L190.832 167.972C191.944 163.188 196.036 152.855 203.51 149.794C200.173 154.896 197.304 158.404 192.5 172.117C192.5 184.874 192.5 191.89 192.5 193.803C194.279 191.571 199.573 186.405 206.512 183.598C203.51 188.063 194.168 194.76 192.5 208.792C191.165 220.018 191.944 218.572 192.5 216.446C199.061 212.194 213.252 200.118 217.522 185.831C221.793 171.543 228.421 167.972 231.201 167.972C229.088 169.354 224.996 173.266 225.529 177.858C230.067 176.327 237.874 175.944 241.21 175.944C235.761 176.476 223.928 180.409 220.191 191.89C218.056 196.482 213.963 202.308 212.184 204.646C215.187 204.221 223.194 202.223 231.201 197.63C241.21 191.89 214.186 218.36 203.51 218.36C201.842 216.446 221.859 220.273 243.879 203.052C230.534 215.298 219.19 222.187 215.187 224.1C220.525 224.419 232.802 223.717 239.208 218.36C231.201 224.1 199.506 230.159 201.508 247.062C203.51 263.964 209.849 277.358 228.532 277.039C247.549 278.953 249.217 281.504 250.218 281.504C251.019 281.504 221.415 281.504 206.512 281.504C211.072 281.929 220.191 284.055 220.191 289.158C212.184 289.158 194.168 284.374 190.832 281.504C185.16 285.65 159.804 287.882 159.804 285.65C168.145 283.099 170.814 282.142 173.149 278.634C165.142 280.93 157.135 281.504 154.133 281.504Z" stroke="#70FFFF" stroke-width="4"/>
<path d="M178.674 152.135C173.972 151.424 171.252 148.013 170.775 136.403C176.502 140.227 181.213 146.668 178.674 152.135Z" stroke="#70FFFF" stroke-width="5"/>
<g filter="url(#filter0_d_5_45)">
<path d="M365.5 180C365.5 271.308 288.366 345.5 193 345.5C97.6337 345.5 20.5 271.308 20.5 180C20.5 88.6921 97.6337 14.5 193 14.5C288.366 14.5 365.5 88.6921 365.5 180Z" stroke="#70FFFF" stroke-width="5"/>
</g>
<g filter="url(#filter1_d_5_45)">
<path d="M249.884 117.265H135.783C88.274 96.3442 127.109 54.7582 155.133 68.7903C187.162 12.1516 241.21 51.5691 234.537 86.0114C269.235 63.6877 277.909 112.8 249.884 117.265Z" stroke="#70FFFF" stroke-width="5" shape-rendering="crispEdges"/>
</g>
<g filter="url(#filter2_d_5_45)">
<path d="M134.95 161.593C134.95 165.052 131.86 168.066 127.776 168.066C123.692 168.066 120.601 165.052 120.601 161.593C120.601 158.135 123.692 155.121 127.776 155.121C131.86 155.121 134.95 158.135 134.95 161.593Z" stroke="#70FFFF" stroke-width="3" shape-rendering="crispEdges"/>
</g>
<g filter="url(#filter3_d_5_45)">
<path d="M261.062 194.76C261.062 198.218 257.972 201.233 253.888 201.233C249.804 201.233 246.713 198.218 246.713 194.76C246.713 191.302 249.804 188.287 253.888 188.287C257.972 188.287 261.062 191.302 261.062 194.76Z" stroke="#70FFFF" stroke-width="3" shape-rendering="crispEdges"/>
</g>
<g filter="url(#filter4_d_5_45)">
<path d="M252.388 219.954C252.388 223.072 250.002 225.47 247.215 225.47C244.429 225.47 242.043 223.072 242.043 219.954C242.043 216.836 244.429 214.438 247.215 214.438C250.002 214.438 252.388 216.836 252.388 219.954Z" stroke="#70FFFF" stroke-width="3" shape-rendering="crispEdges"/>
</g>
<g filter="url(#filter5_d_5_45)">
<path d="M211.018 165.42C211.018 168.879 207.927 171.893 203.843 171.893C199.759 171.893 196.669 168.879 196.669 165.42C196.669 161.962 199.759 158.948 203.843 158.948C207.927 158.948 211.018 161.962 211.018 165.42Z" stroke="#70FFFF" stroke-width="3" shape-rendering="crispEdges"/>
</g>
<g filter="url(#filter6_d_5_45)">
<path d="M146.294 219.635C146.294 222.749 144.202 224.832 142.122 224.832C140.042 224.832 137.95 222.749 137.95 219.635C137.95 216.522 140.042 214.438 142.122 214.438C144.202 214.438 146.294 216.522 146.294 219.635Z" stroke="#70FFFF" stroke-width="3" shape-rendering="crispEdges"/>
</g>
<g filter="url(#filter7_d_5_45)">
<path d="M239.043 187.106C239.043 190.22 236.951 192.303 234.871 192.303C232.791 192.303 230.699 190.22 230.699 187.106C230.699 183.993 232.791 181.909 234.871 181.909C236.951 181.909 239.043 183.993 239.043 187.106Z" stroke="#70FFFF" stroke-width="3" shape-rendering="crispEdges"/>
</g>
<g filter="url(#filter8_d_5_45)">
<path d="M270.404 173.712C270.404 176.826 268.312 178.909 266.232 178.909C264.152 178.909 262.06 176.826 262.06 173.712C262.06 170.598 264.152 168.515 266.232 168.515C268.312 168.515 270.404 170.598 270.404 173.712Z" stroke="#70FFFF" stroke-width="3" shape-rendering="crispEdges"/>
</g>
<g filter="url(#filter9_d_5_45)">
<path d="M257.726 180.09C257.726 183.204 255.634 185.287 253.554 185.287C251.474 185.287 249.382 183.204 249.382 180.09C249.382 176.977 251.474 174.893 253.554 174.893C255.634 174.893 257.726 176.977 257.726 180.09Z" stroke="#70FFFF" stroke-width="3" shape-rendering="crispEdges"/>
</g>
<g filter="url(#filter10_d_5_45)">
<path d="M270.404 187.106C270.404 190.22 268.312 192.303 266.232 192.303C264.152 192.303 262.06 190.22 262.06 187.106C262.06 183.993 264.152 181.909 266.232 181.909C268.312 181.909 270.404 183.993 270.404 187.106Z" stroke="#70FFFF" stroke-width="3" shape-rendering="crispEdges"/>
</g>
<g filter="url(#filter11_d_5_45)">
<path d="M246.383 153.621C246.383 155.98 244.498 157.861 242.211 157.861C239.924 157.861 238.039 155.98 238.039 153.621C238.039 151.262 239.924 149.38 242.211 149.38C244.498 149.38 246.383 151.262 246.383 153.621Z" stroke="#70FFFF" stroke-width="3" shape-rendering="crispEdges"/>
</g>
<g filter="url(#filter12_d_5_45)">
<path d="M235.039 159.361C235.039 161.72 233.154 163.601 230.867 163.601C228.58 163.601 226.696 161.72 226.696 159.361C226.696 157.002 228.58 155.121 230.867 155.121C233.154 155.121 235.039 157.002 235.039 159.361Z" stroke="#70FFFF" stroke-width="3" shape-rendering="crispEdges"/>
</g>
<g filter="url(#filter13_d_5_45)">
<mask id="path-16-inside-1_5_45" fill="white">
<ellipse cx="244.88" cy="165.101" rx="3.00267" ry="2.55129"/>
</mask>
<path d="M244.883 165.101C244.883 164.968 244.916 164.848 244.961 164.758C245.003 164.672 245.047 164.631 245.061 164.619C245.082 164.601 245.028 164.653 244.88 164.653V170.653C247.718 170.653 250.883 168.607 250.883 165.101H244.883ZM244.88 164.653C244.732 164.653 244.677 164.601 244.699 164.619C244.713 164.631 244.756 164.672 244.799 164.758C244.844 164.848 244.877 164.968 244.877 165.101H238.877C238.877 168.607 242.041 170.653 244.88 170.653V164.653ZM244.877 165.101C244.877 165.235 244.844 165.355 244.799 165.445C244.756 165.531 244.713 165.572 244.699 165.584C244.677 165.602 244.732 165.55 244.88 165.55V159.55C242.041 159.55 238.877 161.596 238.877 165.101H244.877ZM244.88 165.55C245.028 165.55 245.082 165.602 245.061 165.584C245.047 165.572 245.003 165.531 244.961 165.445C244.916 165.355 244.883 165.235 244.883 165.101H250.883C250.883 161.596 247.718 159.55 244.88 159.55V165.55Z" fill="#70FFFF" mask="url(#path-16-inside-1_5_45)"/>
</g>
<g filter="url(#filter14_d_5_45)">
<path d="M166.311 200.182C166.311 202.541 164.427 204.422 162.14 204.422C159.853 204.422 157.968 202.541 157.968 200.182C157.968 197.823 159.853 195.941 162.14 195.941C164.427 195.941 166.311 197.823 166.311 200.182Z" stroke="#70FFFF" stroke-width="3" shape-rendering="crispEdges"/>
</g>
<g filter="url(#filter15_d_5_45)">
<path d="M152.299 167.015C152.299 169.374 150.414 171.255 148.127 171.255C145.84 171.255 143.955 169.374 143.955 167.015C143.955 164.656 145.84 162.775 148.127 162.775C150.414 162.775 152.299 164.656 152.299 167.015Z" stroke="#70FFFF" stroke-width="3" shape-rendering="crispEdges"/>
</g>
<g filter="url(#filter16_d_5_45)">
<path d="M146.294 189.977C146.294 192.335 144.409 194.217 142.122 194.217C139.835 194.217 137.95 192.335 137.95 189.977C137.95 187.618 139.835 185.736 142.122 185.736C144.409 185.736 146.294 187.618 146.294 189.977Z" stroke="#70FFFF" stroke-width="3" shape-rendering="crispEdges"/>
</g>
<g filter="url(#filter17_d_5_45)">
<path d="M146.294 156.81C146.294 159.169 144.409 161.05 142.122 161.05C139.835 161.05 137.95 159.169 137.95 156.81C137.95 154.451 139.835 152.569 142.122 152.569C144.409 152.569 146.294 154.451 146.294 156.81Z" stroke="#70FFFF" stroke-width="3" shape-rendering="crispEdges"/>
</g>
<path d="M199.045 150.34C196.721 149.55 195.126 147.265 193.931 140.156C197.009 142.921 199.814 147.202 199.045 150.34Z" stroke="#70FFFF" stroke-width="5"/>
<path d="M181.579 143.411C179.846 141.035 180.298 138.388 185.712 133.257C186.39 137.406 185.35 142.216 181.579 143.411Z" stroke="#70FFFF" stroke-width="5"/>
<path d="M214.486 142.183C212.753 139.806 213.204 137.16 218.619 132.029C219.297 136.178 218.257 140.987 214.486 142.183Z" stroke="#70FFFF" stroke-width="5"/>
<path d="M168.445 172.161C166.712 169.784 167.163 167.137 172.578 162.006C173.256 166.156 172.216 170.965 168.445 172.161Z" stroke="#70FFFF" stroke-width="5"/>
<path d="M135.031 192.229C130.921 191.221 128.768 187.949 129.214 177.509C134 181.388 137.689 187.531 135.031 192.229Z" stroke="#70FFFF" stroke-width="5"/>
<path d="M131.629 201.849C128.567 201.773 126.454 199.787 124.829 192.309C128.896 194.316 132.616 198.101 131.629 201.849Z" stroke="#70FFFF" stroke-width="5"/>
<path d="M206.022 142.684C202.826 142.035 201.216 139.685 201.812 132.031C205.469 134.768 208.215 139.187 206.022 142.684Z" stroke="#70FFFF" stroke-width="5"/>
<path d="M206.934 153.37C209.415 150.975 212.703 150.903 220.077 155.708C215.228 157.331 209.205 157.223 206.934 153.37Z" stroke="#70FFFF" stroke-width="5"/>
<g filter="url(#filter18_d_5_45)">
<path d="M159.471 218.36C161.25 222.931 162.807 235.007 154.8 246.743M154.8 246.743C143.123 246.743 133.114 251.207 136.784 266.196C146.459 270.661 156.468 267.153 154.8 246.743Z" stroke="#70FFFF" stroke-width="4"/>
</g>
<defs>
<filter id="filter0_d_5_45" x="0" y="-2" width="386" height="372" filterUnits="userSpaceOnUse" color-interpolation-filters="sRGB">
<feFlood flood-opacity="0" result="BackgroundImageFix"/>
<feColorMatrix in="SourceAlpha" type="matrix" values="0 0 0 0 0 0 0 0 0 0 0 0 0 0 0 0 0 0 127 0" result="hardAlpha"/>
<feOffset dy="4"/>
<feGaussianBlur stdDeviation="9"/>
<feColorMatrix type="matrix" values="0 0 0 0 0.439216 0 0 0 0 1 0 0 0 0 1 0 0 0 1 0"/>
<feBlend mode="normal" in2="BackgroundImageFix" result="effect1_dropShadow_5_45"/>
<feBlend mode="normal" in="SourceGraphic" in2="effect1_dropShadow_5_45" result="shape"/>
</filter>
<filter id="filter1_d_5_45" x="90.9482" y="21.7492" width="198.126" height="122.016" filterUnits="userSpaceOnUse" color-interpolation-filters="sRGB">
<feFlood flood-opacity="0" result="BackgroundImageFix"/>
<feColorMatrix in="SourceAlpha" type="matrix" values="0 0 0 0 0 0 0 0 0 0 0 0 0 0 0 0 0 0 127 0" result="hardAlpha"/>
<feOffset dy="4"/>
<feGaussianBlur stdDeviation="10"/>
<feComposite in2="hardAlpha" operator="out"/>
<feColorMatrix type="matrix" values="0 0 0 0 0.439216 0 0 0 0 1 0 0 0 0 1 0 0 0 1 0"/>
<feBlend mode="normal" in2="BackgroundImageFix" result="effect1_dropShadow_5_45"/>
<feBlend mode="normal" in="SourceGraphic" in2="effect1_dropShadow_5_45" result="shape"/>
</filter>
<filter id="filter2_d_5_45" x="78.1014" y="116.621" width="99.3488" height="97.9456" filterUnits="userSpaceOnUse" color-interpolation-filters="sRGB">
<feFlood flood-opacity="0" result="BackgroundImageFix"/>
<feColorMatrix in="SourceAlpha" type="matrix" values="0 0 0 0 0 0 0 0 0 0 0 0 0 0 0 0 0 0 127 0" result="hardAlpha"/>
<feOffset dy="4"/>
<feGaussianBlur stdDeviation="20.5"/>
<feComposite in2="hardAlpha" operator="out"/>
<feColorMatrix type="matrix" values="0 0 0 0 0.439216 0 0 0 0 1 0 0 0 0 1 0 0 0 1 0"/>
<feBlend mode="normal" in2="BackgroundImageFix" result="effect1_dropShadow_5_45"/>
<feBlend mode="normal" in="SourceGraphic" in2="effect1_dropShadow_5_45" result="shape"/>
</filter>
<filter id="filter3_d_5_45" x="204.213" y="149.787" width="99.3488" height="97.9456" filterUnits="userSpaceOnUse" color-interpolation-filters="sRGB">
<feFlood flood-opacity="0" result="BackgroundImageFix"/>
<feColorMatrix in="SourceAlpha" type="matrix" values="0 0 0 0 0 0 0 0 0 0 0 0 0 0 0 0 0 0 127 0" result="hardAlpha"/>
<feOffset dy="4"/>
<feGaussianBlur stdDeviation="20.5"/>
<feComposite in2="hardAlpha" operator="out"/>
<feColorMatrix type="matrix" values="0 0 0 0 0.439216 0 0 0 0 1 0 0 0 0 1 0 0 0 1 0"/>
<feBlend mode="normal" in2="BackgroundImageFix" result="effect1_dropShadow_5_45"/>
<feBlend mode="normal" in="SourceGraphic" in2="effect1_dropShadow_5_45" result="shape"/>
</filter>
<filter id="filter4_d_5_45" x="199.543" y="175.938" width="95.3452" height="96.0321" filterUnits="userSpaceOnUse" color-interpolation-filters="sRGB">
<feFlood flood-opacity="0" result="BackgroundImageFix"/>
<feColorMatrix in="SourceAlpha" type="matrix" values="0 0 0 0 0 0 0 0 0 0 0 0 0 0 0 0 0 0 127 0" result="hardAlpha"/>
<feOffset dy="4"/>
<feGaussianBlur stdDeviation="20.5"/>
<feComposite in2="hardAlpha" operator="out"/>
<feColorMatrix type="matrix" values="0 0 0 0 0.439216 0 0 0 0 1 0 0 0 0 1 0 0 0 1 0"/>
<feBlend mode="normal" in2="BackgroundImageFix" result="effect1_dropShadow_5_45"/>
<feBlend mode="normal" in="SourceGraphic" in2="effect1_dropShadow_5_45" result="shape"/>
</filter>
<filter id="filter5_d_5_45" x="154.169" y="120.448" width="99.3488" height="97.9456" filterUnits="userSpaceOnUse" color-interpolation-filters="sRGB">
<feFlood flood-opacity="0" result="BackgroundImageFix"/>
<feColorMatrix in="SourceAlpha" type="matrix" values="0 0 0 0 0 0 0 0 0 0 0 0 0 0 0 0 0 0 127 0" result="hardAlpha"/>
<feOffset dy="4"/>
<feGaussianBlur stdDeviation="20.5"/>
<feComposite in2="hardAlpha" operator="out"/>
<feColorMatrix type="matrix" values="0 0 0 0 0.439216 0 0 0 0 1 0 0 0 0 1 0 0 0 1 0"/>
<feBlend mode="normal" in2="BackgroundImageFix" result="effect1_dropShadow_5_45"/>
<feBlend mode="normal" in="SourceGraphic" in2="effect1_dropShadow_5_45" result="shape"/>
</filter>
<filter id="filter6_d_5_45" x="95.4501" y="175.938" width="93.3434" height="95.3943" filterUnits="userSpaceOnUse" color-interpolation-filters="sRGB">
<feFlood flood-opacity="0" result="BackgroundImageFix"/>
<feColorMatrix in="SourceAlpha" type="matrix" values="0 0 0 0 0 0 0 0 0 0 0 0 0 0 0 0 0 0 127 0" result="hardAlpha"/>
<feOffset dy="4"/>
<feGaussianBlur stdDeviation="20.5"/>
<feComposite in2="hardAlpha" operator="out"/>
<feColorMatrix type="matrix" values="0 0 0 0 0.439216 0 0 0 0 1 0 0 0 0 1 0 0 0 1 0"/>
<feBlend mode="normal" in2="BackgroundImageFix" result="effect1_dropShadow_5_45"/>
<feBlend mode="normal" in="SourceGraphic" in2="effect1_dropShadow_5_45" result="shape"/>
</filter>
<filter id="filter7_d_5_45" x="188.199" y="143.409" width="93.3434" height="95.3943" filterUnits="userSpaceOnUse" color-interpolation-filters="sRGB">
<feFlood flood-opacity="0" result="BackgroundImageFix"/>
<feColorMatrix in="SourceAlpha" type="matrix" values="0 0 0 0 0 0 0 0 0 0 0 0 0 0 0 0 0 0 127 0" result="hardAlpha"/>
<feOffset dy="4"/>
<feGaussianBlur stdDeviation="20.5"/>
<feComposite in2="hardAlpha" operator="out"/>
<feColorMatrix type="matrix" values="0 0 0 0 0.439216 0 0 0 0 1 0 0 0 0 1 0 0 0 1 0"/>
<feBlend mode="normal" in2="BackgroundImageFix" result="effect1_dropShadow_5_45"/>
<feBlend mode="normal" in="SourceGraphic" in2="effect1_dropShadow_5_45" result="shape"/>
</filter>
<filter id="filter8_d_5_45" x="219.56" y="130.015" width="93.3434" height="95.3943" filterUnits="userSpaceOnUse" color-interpolation-filters="sRGB">
<feFlood flood-opacity="0" result="BackgroundImageFix"/>
<feColorMatrix in="SourceAlpha" type="matrix" values="0 0 0 0 0 0 0 0 0 0 0 0 0 0 0 0 0 0 127 0" result="hardAlpha"/>
<feOffset dy="4"/>
<feGaussianBlur stdDeviation="20.5"/>
<feComposite in2="hardAlpha" operator="out"/>
<feColorMatrix type="matrix" values="0 0 0 0 0.439216 0 0 0 0 1 0 0 0 0 1 0 0 0 1 0"/>
<feBlend mode="normal" in2="BackgroundImageFix" result="effect1_dropShadow_5_45"/>
<feBlend mode="normal" in="SourceGraphic" in2="effect1_dropShadow_5_45" result="shape"/>
</filter>
<filter id="filter9_d_5_45" x="206.882" y="136.393" width="93.3434" height="95.3943" filterUnits="userSpaceOnUse" color-interpolation-filters="sRGB">
<feFlood flood-opacity="0" result="BackgroundImageFix"/>
<feColorMatrix in="SourceAlpha" type="matrix" values="0 0 0 0 0 0 0 0 0 0 0 0 0 0 0 0 0 0 127 0" result="hardAlpha"/>
<feOffset dy="4"/>
<feGaussianBlur stdDeviation="20.5"/>
<feComposite in2="hardAlpha" operator="out"/>
<feColorMatrix type="matrix" values="0 0 0 0 0.439216 0 0 0 0 1 0 0 0 0 1 0 0 0 1 0"/>
<feBlend mode="normal" in2="BackgroundImageFix" result="effect1_dropShadow_5_45"/>
<feBlend mode="normal" in="SourceGraphic" in2="effect1_dropShadow_5_45" result="shape"/>
</filter>
<filter id="filter10_d_5_45" x="219.56" y="143.409" width="93.3434" height="95.3943" filterUnits="userSpaceOnUse" color-interpolation-filters="sRGB">
<feFlood flood-opacity="0" result="BackgroundImageFix"/>
<feColorMatrix in="SourceAlpha" type="matrix" values="0 0 0 0 0 0 0 0 0 0 0 0 0 0 0 0 0 0 127 0" result="hardAlpha"/>
<feOffset dy="4"/>
<feGaussianBlur stdDeviation="20.5"/>
<feComposite in2="hardAlpha" operator="out"/>
<feColorMatrix type="matrix" values="0 0 0 0 0.439216 0 0 0 0 1 0 0 0 0 1 0 0 0 1 0"/>
<feBlend mode="normal" in2="BackgroundImageFix" result="effect1_dropShadow_5_45"/>
<feBlend mode="normal" in="SourceGraphic" in2="effect1_dropShadow_5_45" result="shape"/>
</filter>
<filter id="filter11_d_5_45" x="195.539" y="110.88" width="93.3434" height="93.4808" filterUnits="userSpaceOnUse" color-interpolation-filters="sRGB">
<feFlood flood-opacity="0" result="BackgroundImageFix"/>
<feColorMatrix in="SourceAlpha" type="matrix" values="0 0 0 0 0 0 0 0 0 0 0 0 0 0 0 0 0 0 127 0" result="hardAlpha"/>
<feOffset dy="4"/>
<feGaussianBlur stdDeviation="20.5"/>
<feComposite in2="hardAlpha" operator="out"/>
<feColorMatrix type="matrix" values="0 0 0 0 0.439216 0 0 0 0 1 0 0 0 0 1 0 0 0 1 0"/>
<feBlend mode="normal" in2="BackgroundImageFix" result="effect1_dropShadow_5_45"/>
<feBlend mode="normal" in="SourceGraphic" in2="effect1_dropShadow_5_45" result="shape"/>
</filter>
<filter id="filter12_d_5_45" x="184.196" y="116.621" width="93.3434" height="93.4808" filterUnits="userSpaceOnUse" color-interpolation-filters="sRGB">
<feFlood flood-opacity="0" result="BackgroundImageFix"/>
<feColorMatrix in="SourceAlpha" type="matrix" values="0 0 0 0 0 0 0 0 0 0 0 0 0 0 0 0 0 0 127 0" result="hardAlpha"/>
<feOffset dy="4"/>
<feGaussianBlur stdDeviation="20.5"/>
<feComposite in2="hardAlpha" operator="out"/>
<feColorMatrix type="matrix" values="0 0 0 0 0.439216 0 0 0 0 1 0 0 0 0 1 0 0 0 1 0"/>
<feBlend mode="normal" in2="BackgroundImageFix" result="effect1_dropShadow_5_45"/>
<feBlend mode="normal" in="SourceGraphic" in2="effect1_dropShadow_5_45" result="shape"/>
</filter>
<filter id="filter13_d_5_45" x="200.877" y="125.55" width="88.0053" height="87.1026" filterUnits="userSpaceOnUse" color-interpolation-filters="sRGB">
<feFlood flood-opacity="0" result="BackgroundImageFix"/>
<feColorMatrix in="SourceAlpha" type="matrix" values="0 0 0 0 0 0 0 0 0 0 0 0 0 0 0 0 0 0 127 0" result="hardAlpha"/>
<feOffset dy="4"/>
<feGaussianBlur stdDeviation="20.5"/>
<feComposite in2="hardAlpha" operator="out"/>
<feColorMatrix type="matrix" values="0 0 0 0 0.439216 0 0 0 0 1 0 0 0 0 1 0 0 0 1 0"/>
<feBlend mode="normal" in2="BackgroundImageFix" result="effect1_dropShadow_5_45"/>
<feBlend mode="normal" in="SourceGraphic" in2="effect1_dropShadow_5_45" result="shape"/>
</filter>
<filter id="filter14_d_5_45" x="115.468" y="157.441" width="93.3434" height="93.4808" filterUnits="userSpaceOnUse" color-interpolation-filters="sRGB">
<feFlood flood-opacity="0" result="BackgroundImageFix"/>
<feColorMatrix in="SourceAlpha" type="matrix" values="0 0 0 0 0 0 0 0 0 0 0 0 0 0 0 0 0 0 127 0" result="hardAlpha"/>
<feOffset dy="4"/>
<feGaussianBlur stdDeviation="20.5"/>
<feComposite in2="hardAlpha" operator="out"/>
<feColorMatrix type="matrix" values="0 0 0 0 0.439216 0 0 0 0 1 0 0 0 0 1 0 0 0 1 0"/>
<feBlend mode="normal" in2="BackgroundImageFix" result="effect1_dropShadow_5_45"/>
<feBlend mode="normal" in="SourceGraphic" in2="effect1_dropShadow_5_45" result="shape"/>
</filter>
<filter id="filter15_d_5_45" x="101.455" y="124.275" width="93.3434" height="93.4808" filterUnits="userSpaceOnUse" color-interpolation-filters="sRGB">
<feFlood flood-opacity="0" result="BackgroundImageFix"/>
<feColorMatrix in="SourceAlpha" type="matrix" values="0 0 0 0 0 0 0 0 0 0 0 0 0 0 0 0 0 0 127 0" result="hardAlpha"/>
<feOffset dy="4"/>
<feGaussianBlur stdDeviation="20.5"/>
<feComposite in2="hardAlpha" operator="out"/>
<feColorMatrix type="matrix" values="0 0 0 0 0.439216 0 0 0 0 1 0 0 0 0 1 0 0 0 1 0"/>
<feBlend mode="normal" in2="BackgroundImageFix" result="effect1_dropShadow_5_45"/>
<feBlend mode="normal" in="SourceGraphic" in2="effect1_dropShadow_5_45" result="shape"/>
</filter>
<filter id="filter16_d_5_45" x="95.4501" y="147.236" width="93.3434" height="93.4808" filterUnits="userSpaceOnUse" color-interpolation-filters="sRGB">
<feFlood flood-opacity="0" result="BackgroundImageFix"/>
<feColorMatrix in="SourceAlpha" type="matrix" values="0 0 0 0 0 0 0 0 0 0 0 0 0 0 0 0 0 0 127 0" result="hardAlpha"/>
<feOffset dy="4"/>
<feGaussianBlur stdDeviation="20.5"/>
<feComposite in2="hardAlpha" operator="out"/>
<feColorMatrix type="matrix" values="0 0 0 0 0.439216 0 0 0 0 1 0 0 0 0 1 0 0 0 1 0"/>
<feBlend mode="normal" in2="BackgroundImageFix" result="effect1_dropShadow_5_45"/>
<feBlend mode="normal" in="SourceGraphic" in2="effect1_dropShadow_5_45" result="shape"/>
</filter>
<filter id="filter17_d_5_45" x="95.4501" y="114.069" width="93.3434" height="93.4808" filterUnits="userSpaceOnUse" color-interpolation-filters="sRGB">
<feFlood flood-opacity="0" result="BackgroundImageFix"/>
<feColorMatrix in="SourceAlpha" type="matrix" values="0 0 0 0 0 0 0 0 0 0 0 0 0 0 0 0 0 0 127 0" result="hardAlpha"/>
<feOffset dy="4"/>
<feGaussianBlur stdDeviation="20.5"/>
<feComposite in2="hardAlpha" operator="out"/>
<feColorMatrix type="matrix" values="0 0 0 0 0.439216 0 0 0 0 1 0 0 0 0 1 0 0 0 1 0"/>
<feBlend mode="normal" in2="BackgroundImageFix" result="effect1_dropShadow_5_45"/>
<feBlend mode="normal" in="SourceGraphic" in2="effect1_dropShadow_5_45" result="shape"/>
</filter>
<filter id="filter18_d_5_45" x="121.016" y="208.634" width="54.8868" height="78.2766" filterUnits="userSpaceOnUse" color-interpolation-filters="sRGB">
<feFlood flood-opacity="0" result="BackgroundImageFix"/>
<feColorMatrix in="SourceAlpha" type="matrix" values="0 0 0 0 0 0 0 0 0 0 0 0 0 0 0 0 0 0 127 0" result="hardAlpha"/>
<feOffset dy="4"/>
<feGaussianBlur stdDeviation="6.5"/>
<feColorMatrix type="matrix" values="0 0 0 0 0.439216 0 0 0 0 1 0 0 0 0 1 0 0 0 1 0"/>
<feBlend mode="normal" in2="BackgroundImageFix" result="effect1_dropShadow_5_45"/>
<feBlend mode="normal" in="SourceGraphic" in2="effect1_dropShadow_5_45" result="shape"/>
</filter>
</defs>
</svg>
