<svg width="460" height="456" viewBox="0 0 460 456" fill="none" xmlns="http://www.w3.org/2000/svg">
<g filter="url(#filter0_d_4_4)">
<path d="M107.699 394.653C119.345 403.633 138.496 410.508 168.993 404.662C169.012 413.063 169.094 421.161 169.176 427.925C169.205 430.328 169.235 432.558 169.261 434.572C169.319 439.067 169.364 442.484 169.364 444.339C169.364 446.838 168.512 449.344 166.797 450.958C165.217 452.445 162.441 453.607 157.58 452.655C67.7653 422.05 3 335.757 3 233.781C3 106.102 104.221 3 229.315 3C354.033 3 455.62 106.105 455.249 233.772V233.781C455.249 335.757 390.484 422.044 300.67 452.66C295.811 453.609 293.036 452.447 291.454 450.958C289.738 449.343 288.885 446.835 288.885 444.334C288.885 441.78 288.926 437.317 288.982 431.335C289.01 428.295 289.041 424.863 289.073 421.09C289.167 409.909 289.261 395.772 289.261 380.085C289.261 361.082 284.055 347.592 276.998 338.978C300.938 335.734 325.347 328.978 344.258 312.843C364.88 295.247 378.482 266.927 378.482 221.393C378.482 195.812 369.954 174.65 355.383 158.041C358.304 149.723 364.375 126.212 352.461 95.6719L351.941 94.3404L350.58 93.9049L349.666 96.7623C350.58 93.9049 350.577 93.904 350.574 93.903L350.567 93.9009L350.553 93.8965L350.519 93.8861C350.494 93.8785 350.464 93.8697 350.43 93.8598C350.36 93.8401 350.271 93.8161 350.163 93.7891C349.946 93.7351 349.652 93.6693 349.279 93.6023C348.532 93.4682 347.472 93.3293 346.089 93.269C343.322 93.1483 339.28 93.3428 333.893 94.5068C323.313 96.7931 307.571 102.813 286.087 117.499C267.98 112.633 248.47 110.017 229.315 110.017H229.311C210.147 110.038 191.066 112.554 172.54 117.501C151.058 102.813 135.316 96.7932 124.736 94.5068C119.349 93.3428 115.308 93.1483 112.54 93.269C111.158 93.3293 110.097 93.4682 109.351 93.6023C108.977 93.6693 108.683 93.7351 108.466 93.7891C108.358 93.8161 108.269 93.8401 108.2 93.8598C108.165 93.8697 108.135 93.8785 108.11 93.8861L108.076 93.8965L108.062 93.9009L108.056 93.903C108.053 93.904 108.05 93.9049 108.964 96.7623L108.05 93.9049L106.688 94.3404L106.169 95.6719C94.2427 126.241 100.333 149.768 103.25 158.064C89.0505 174.639 80.1473 195.782 80.1473 221.393C80.1473 266.926 93.7482 295.34 114.318 312.984C133.189 329.171 157.52 335.931 181.318 339.022C176.293 345.331 172.11 354.371 170.378 366.035C163.823 368.894 153.566 372.11 142.697 371.099C131.19 370.028 118.682 364.202 108.922 347.265L108.892 347.211C108.862 347.157 108.82 347.083 108.766 346.989C108.658 346.801 108.502 346.535 108.298 346.202C107.891 345.536 107.29 344.598 106.498 343.475C104.917 341.233 102.559 338.231 99.4339 335.173C93.2063 329.08 83.7418 322.584 71.195 321.745L71.0951 321.738H70.9949L70.9949 324.738C70.9949 321.738 70.9939 321.738 70.9928 321.738H70.9901L70.9833 321.739L70.9634 321.739L70.8999 321.739C70.8817 321.739 70.861 321.74 70.8381 321.74C70.7945 321.741 70.7424 321.741 70.6825 321.743C70.4995 321.747 70.2421 321.755 69.9266 321.77C69.2984 321.801 68.4262 321.862 67.4458 321.986C65.603 322.218 62.9251 322.721 60.8641 323.955C59.7986 324.593 58.6406 325.578 58.0133 327.076C57.3507 328.657 57.4732 330.341 58.1329 331.931C59.3337 334.823 62.5238 337.93 67.7771 341.534L67.9896 341.679L68.2089 341.78L68.2136 341.782L68.2154 341.783C68.2269 341.789 68.2525 341.801 68.2916 341.821C68.3698 341.86 68.5019 341.929 68.6831 342.031C69.0456 342.233 69.6047 342.565 70.3218 343.053C71.7556 344.027 73.8237 345.621 76.2188 348.039C80.9933 352.86 87.1128 360.999 92.0861 374.118C92.095 374.145 92.1057 374.177 92.1183 374.213C92.1534 374.315 92.2031 374.455 92.2686 374.631C92.3996 374.983 92.5941 375.476 92.8615 376.088C93.3959 377.31 94.2236 379.009 95.4212 380.986C97.8153 384.938 101.703 390.03 107.699 394.653Z" stroke="#70FFFF" stroke-width="6"/>
</g>
<defs>
<filter id="filter0_d_4_4" x="-35" y="-31" width="528.25" height="526.002" filterUnits="userSpaceOnUse" color-interpolation-filters="sRGB">
<feFlood flood-opacity="0" result="BackgroundImageFix"/>
<feColorMatrix in="SourceAlpha" type="matrix" values="0 0 0 0 0 0 0 0 0 0 0 0 0 0 0 0 0 0 127 0" result="hardAlpha"/>
<feOffset dy="4"/>
<feGaussianBlur stdDeviation="17.5"/>
<feColorMatrix type="matrix" values="0 0 0 0 0.439216 0 0 0 0 1 0 0 0 0 1 0 0 0 1 0"/>
<feBlend mode="normal" in2="BackgroundImageFix" result="effect1_dropShadow_4_4"/>
<feBlend mode="normal" in="SourceGraphic" in2="effect1_dropShadow_4_4" result="shape"/>
</filter>
</defs>
</svg>
