<svg width="1268" height="1198" viewBox="0 0 1268 1198" fill="none" xmlns="http://www.w3.org/2000/svg">
<g clip-path="url(#clip0_3_2)">
<g clip-path="url(#clip1_3_2)" filter="url(#filter0_d_3_2)">
<g clip-path="url(#clip2_3_2)">
<g opacity="0.1">
<path d="M0 0H1268V1H0V0Z" fill="#70FFFF" fill-opacity="0.2"/>
<path d="M0 50H1268V51H0V50Z" fill="#70FFFF" fill-opacity="0.2"/>
<path d="M0 100H1268V101H0V100Z" fill="#70FFFF" fill-opacity="0.2"/>
<path d="M0 150H1268V151H0V150Z" fill="#70FFFF" fill-opacity="0.2"/>
<path d="M0 200H1268V201H0V200Z" fill="#70FFFF" fill-opacity="0.2"/>
<path d="M0 250H1268V251H0V250Z" fill="#70FFFF" fill-opacity="0.2"/>
<path d="M0 300H1268V301H0V300Z" fill="#70FFFF" fill-opacity="0.2"/>
<path d="M0 350H1268V351H0V350Z" fill="#70FFFF" fill-opacity="0.2"/>
<path d="M0 400H1268V401H0V400Z" fill="#70FFFF" fill-opacity="0.2"/>
<path d="M0 450H1268V451H0V450Z" fill="#70FFFF" fill-opacity="0.2"/>
<path d="M0 500H1268V501H0V500Z" fill="#70FFFF" fill-opacity="0.2"/>
<path d="M0 550H1268V551H0V550Z" fill="#70FFFF" fill-opacity="0.2"/>
<path d="M0 600H1268V601H0V600Z" fill="#70FFFF" fill-opacity="0.2"/>
<path d="M0 650H1268V651H0V650Z" fill="#70FFFF" fill-opacity="0.2"/>
<path d="M0 700H1268V701H0V700Z" fill="#70FFFF" fill-opacity="0.2"/>
<path d="M0 750H1268V751H0V750Z" fill="#70FFFF" fill-opacity="0.2"/>
<path d="M0 800H1268V801H0V800Z" fill="#70FFFF" fill-opacity="0.2"/>
<path d="M0 850H1268V851H0V850Z" fill="#70FFFF" fill-opacity="0.2"/>
<path d="M0 900H1268V901H0V900Z" fill="#70FFFF" fill-opacity="0.2"/>
<path d="M0 950H1268V951H0V950Z" fill="#70FFFF" fill-opacity="0.2"/>
<path d="M0 1000H1268V1001H0V1000Z" fill="#70FFFF" fill-opacity="0.2"/>
<path d="M0 1050H1268V1051H0V1050Z" fill="#70FFFF" fill-opacity="0.2"/>
<path d="M0 1100H1268V1101H0V1100Z" fill="#70FFFF" fill-opacity="0.2"/>
<path d="M0 1150H1268V1151H0V1150Z" fill="#70FFFF" fill-opacity="0.2"/>
<path d="M0 0H1V1198H0V0Z" fill="#70FFFF" fill-opacity="0.2"/>
<path d="M50 0H51V1198H50V0Z" fill="#70FFFF" fill-opacity="0.2"/>
<path d="M100 0H101V1198H100V0Z" fill="#70FFFF" fill-opacity="0.2"/>
<path d="M150 0H151V1198H150V0Z" fill="#70FFFF" fill-opacity="0.2"/>
<path d="M200 0H201V1198H200V0Z" fill="#70FFFF" fill-opacity="0.2"/>
<path d="M250 0H251V1198H250V0Z" fill="#70FFFF" fill-opacity="0.2"/>
<path d="M300 0H301V1198H300V0Z" fill="#70FFFF" fill-opacity="0.2"/>
<path d="M350 0H351V1198H350V0Z" fill="#70FFFF" fill-opacity="0.2"/>
<path d="M400 0H401V1198H400V0Z" fill="#70FFFF" fill-opacity="0.2"/>
<path d="M450 0H451V1198H450V0Z" fill="#70FFFF" fill-opacity="0.2"/>
<path d="M500 0H501V1198H500V0Z" fill="#70FFFF" fill-opacity="0.2"/>
<path d="M550 0H551V1198H550V0Z" fill="#70FFFF" fill-opacity="0.2"/>
<path d="M600 0H601V1198H600V0Z" fill="#70FFFF" fill-opacity="0.2"/>
<path d="M650 0H651V1198H650V0Z" fill="#70FFFF" fill-opacity="0.2"/>
<path d="M700 0H701V1198H700V0Z" fill="#70FFFF" fill-opacity="0.2"/>
<path d="M750 0H751V1198H750V0Z" fill="#70FFFF" fill-opacity="0.2"/>
<path d="M800 0H801V1198H800V0Z" fill="#70FFFF" fill-opacity="0.2"/>
<path d="M850 0H851V1198H850V0Z" fill="#70FFFF" fill-opacity="0.2"/>
<path d="M900 0H901V1198H900V0Z" fill="#70FFFF" fill-opacity="0.2"/>
<path d="M950 0H951V1198H950V0Z" fill="#70FFFF" fill-opacity="0.2"/>
<path d="M1000 0H1001V1198H1000V0Z" fill="#70FFFF" fill-opacity="0.2"/>
<path d="M1050 0H1051V1198H1050V0Z" fill="#70FFFF" fill-opacity="0.2"/>
<path d="M1100 0H1101V1198H1100V0Z" fill="#70FFFF" fill-opacity="0.2"/>
<path d="M1150 0H1151V1198H1150V0Z" fill="#70FFFF" fill-opacity="0.2"/>
<path d="M1200 0H1201V1198H1200V0Z" fill="#70FFFF" fill-opacity="0.2"/>
<path d="M1250 0H1251V1198H1250V0Z" fill="#70FFFF" fill-opacity="0.2"/>
</g>
</g>
</g>
</g>
<defs>
<filter id="filter0_d_3_2" x="-5" y="-5" width="1278" height="1208" filterUnits="userSpaceOnUse" color-interpolation-filters="sRGB">
<feFlood flood-opacity="0" result="BackgroundImageFix"/>
<feColorMatrix in="SourceAlpha" type="matrix" values="0 0 0 0 0 0 0 0 0 0 0 0 0 0 0 0 0 0 127 0" result="hardAlpha"/>
<feOffset/>
<feGaussianBlur stdDeviation="2.5"/>
<feColorMatrix type="matrix" values="0 0 0 0 0.439216 0 0 0 0 1 0 0 0 0 1 0 0 0 0.2 0"/>
<feBlend mode="normal" in2="BackgroundImageFix" result="effect1_dropShadow_3_2"/>
<feBlend mode="normal" in="SourceGraphic" in2="effect1_dropShadow_3_2" result="shape"/>
</filter>
<clipPath id="clip0_3_2">
<rect width="1268" height="1198" fill="white"/>
</clipPath>
<clipPath id="clip1_3_2">
<rect width="1268" height="1198" fill="white"/>
</clipPath>
<clipPath id="clip2_3_2">
<rect width="1268" height="1198" fill="white"/>
</clipPath>
</defs>
</svg>
