<svg width="327" height="319" viewBox="0 0 327 319" fill="none" xmlns="http://www.w3.org/2000/svg">
<g clip-path="url(#clip0_4_5)">
<g filter="url(#filter0_d_4_5)">
<path d="M322.42 95.5735L324.515 93.4261L322.42 95.5735C323.441 96.5693 324.001 97.9038 324.001 99.2783V262.806C324.001 292.066 299.574 316.001 269.397 316.001H57.6045C27.4276 316.001 3 292.066 3 262.806V56.1952C3 26.9355 27.4276 3 57.6045 3H225.233C226.712 3 228.114 3.57339 229.136 4.57053L322.42 95.5735ZM234.396 24.7248L229.301 19.7546V26.8723V92.3807V95.3807H232.301H299.452H306.824L301.547 90.2333L234.396 24.7248ZM218.337 16.5495V13.5495H215.337H57.6045C33.6094 13.5495 13.9645 32.6082 13.9645 56.1952V262.805C13.9645 286.392 33.6094 305.451 57.6045 305.451H269.396C293.391 305.451 313.036 286.392 313.034 262.805V108.93V105.93H310.034H223.819C220.722 105.93 218.337 103.498 218.337 100.655V16.5495Z" stroke="#70FFFF" stroke-width="6"/>
<path d="M124.236 96.041L124.236 96.0411L210.37 180.066C220.41 189.86 220.41 205.77 210.371 215.565C200.29 225.398 183.851 225.401 173.767 215.565L86.7734 130.7C79.0496 123.165 74.8166 113.179 74.8166 102.556C74.8166 91.9333 79.0496 81.947 86.7734 74.4122C94.4997 66.875 104.772 62.7175 115.729 62.7175C126.687 62.7175 136.959 66.875 144.685 74.4122L235.836 163.333L235.836 163.333C246.391 173.629 252.183 187.289 252.183 201.817C252.183 216.347 246.39 230.006 235.835 240.303C225.279 250.602 211.241 256.281 196.28 256.281C181.319 256.281 167.282 250.602 156.724 240.303L86.6419 171.935C84.5364 169.881 84.5364 166.582 86.6419 164.528L86.6424 164.528C88.7877 162.434 92.3002 162.434 94.4475 164.528L164.529 232.897C173.018 241.179 184.305 245.733 196.28 245.733C208.254 245.733 219.541 241.179 228.03 232.897C245.589 215.768 245.589 187.871 228.03 170.741L136.88 81.8206C125.206 70.4328 106.252 70.4328 94.579 81.8206C88.9191 87.342 85.7811 94.7148 85.7811 102.557C85.7811 110.398 88.9175 117.771 94.579 123.294L96.6738 121.147L94.579 123.294L181.573 208.158L181.573 208.159C187.371 213.813 196.767 213.813 202.563 208.158C208.402 202.463 208.402 193.169 202.563 187.474L116.43 103.448C114.325 101.394 114.325 98.0951 116.43 96.041L116.431 96.0406C118.576 93.9469 122.088 93.9463 124.236 96.041Z" stroke="#70FFFF" stroke-width="6"/>
</g>
</g>
<defs>
<filter id="filter0_d_4_5" x="-39" y="-35" width="405.001" height="397.001" filterUnits="userSpaceOnUse" color-interpolation-filters="sRGB">
<feFlood flood-opacity="0" result="BackgroundImageFix"/>
<feColorMatrix in="SourceAlpha" type="matrix" values="0 0 0 0 0 0 0 0 0 0 0 0 0 0 0 0 0 0 127 0" result="hardAlpha"/>
<feOffset dy="4"/>
<feGaussianBlur stdDeviation="19.5"/>
<feColorMatrix type="matrix" values="0 0 0 0 0.439216 0 0 0 0 1 0 0 0 0 1 0 0 0 1 0"/>
<feBlend mode="normal" in2="BackgroundImageFix" result="effect1_dropShadow_4_5"/>
<feBlend mode="normal" in="SourceGraphic" in2="effect1_dropShadow_4_5" result="shape"/>
</filter>
<clipPath id="clip0_4_5">
<rect width="327" height="319" fill="white"/>
</clipPath>
</defs>
</svg>
